# xmcd CD database file
#
# Track frame offsets:
#	150
#	31827
#	73417
#	97542
#	135147
#	162117
#
# Disc length: 2580 seconds
#
# Revision: 0
# Processed by: cddbd v1.5.1PL0 Copyright (c) Steve Scherf et al.
# Submitted via: CDex 1.51
#
DISCID=3c0a1206
DTITLE=The String Trio Of New York - Area Code 212
DYEAR=1981
DGENRE=Jazz
TTITLE0=Twixt C And D
TTITLE1=Strawberries
TTITLE2=Echovamp 1678
TTITLE3=Coho
TTITLE4=Bang'S Bounce
TTITLE5=Abjunctinuity
EXTD=YEAR: 1981
EXTT0=
EXTT1=
EXTT2=
EXTT3=
EXTT4=
EXTT5=
PLAYORDER=
